<svg width="16" height="15" viewBox="0 0 16 15" fill="none" xmlns="http://www.w3.org/2000/svg">
<path d="M11.8027 6.20992C11.6712 6.06997 11.5037 6 11.3004 6C11.0972 6 10.9297 6.06997 10.7982 6.20992L8 9.18702L5.20179 6.20992C5.07025 6.06997 4.90284 6 4.69955 6C4.49626 6 4.32885 6.06997 4.19731 6.20992C4.06577 6.34987 4 6.52799 4 6.74427C4 6.96056 4.06577 7.13867 4.19731 7.27862L7.49776 10.7901C7.56951 10.8664 7.64723 10.9206 7.73094 10.9527C7.81465 10.9847 7.90433 11.0005 8 11C8.09566 11 8.18535 10.984 8.26906 10.9519C8.35277 10.9198 8.43049 10.8659 8.50224 10.7901L11.8027 7.27862C11.9342 7.13867 12 6.96056 12 6.74427C12 6.52799 11.9342 6.34987 11.8027 6.20992Z" fill="white"/>
</svg>
