<svg width="49" height="843" viewBox="0 0 49 843" fill="none" xmlns="http://www.w3.org/2000/svg">
<path d="M28.3344 139.345C28.3344 140.366 28.0314 141.364 27.4637 142.213C26.8959 143.062 26.0888 143.724 25.1447 144.114C24.2005 144.505 23.1616 144.607 22.1592 144.408C21.1569 144.209 20.2362 143.718 19.5135 142.996C18.7909 142.274 18.2987 141.354 18.0993 140.353C17.8999 139.351 18.0022 138.313 18.3933 137.37C18.7844 136.427 19.4466 135.621 20.2964 135.054C21.1461 134.486 22.1452 134.184 23.1672 134.184C24.5376 134.184 25.8518 134.727 26.8209 135.695C27.79 136.663 28.3344 137.976 28.3344 139.345Z" fill="#002F93"/>
<path d="M28.3344 105.799C28.3344 106.82 28.0314 107.818 27.4637 108.667C26.8959 109.516 26.0888 110.178 25.1447 110.569C24.2005 110.959 23.1616 111.061 22.1592 110.862C21.1569 110.663 20.2362 110.172 19.5135 109.45C18.7909 108.728 18.2987 107.808 18.0993 106.807C17.8999 105.805 18.0022 104.768 18.3933 103.824C18.7844 102.881 19.4466 102.075 20.2964 101.508C21.1461 100.94 22.1452 100.638 23.1672 100.638C24.5376 100.638 25.8518 101.181 26.8209 102.15C27.79 103.118 28.3344 104.43 28.3344 105.799Z" fill="#002F93"/>
<path d="M28.3344 72.2536C28.3344 73.2745 28.0314 74.2725 27.4637 75.1214C26.8959 75.9703 26.0888 76.6319 25.1447 77.0227C24.2005 77.4134 23.1616 77.5156 22.1592 77.3164C21.1569 77.1173 20.2362 76.6257 19.5135 75.9038C18.7909 75.1819 18.2987 74.2621 18.0993 73.2608C17.8999 72.2595 18.0022 71.2216 18.3933 70.2784C18.7844 69.3352 19.4466 68.529 20.2964 67.9618C21.1461 67.3946 22.1452 67.0918 23.1672 67.0918C24.5376 67.0918 25.8518 67.6356 26.8209 68.6036C27.79 69.5716 28.3344 70.8846 28.3344 72.2536Z" fill="#002F93"/>
<path d="M28.3344 38.7084C28.3344 39.7293 28.0313 40.7273 27.4635 41.5762C26.8957 42.425 26.0887 43.0866 25.1445 43.4773C24.2004 43.868 23.1614 43.9702 22.1591 43.771C21.1568 43.5718 20.2361 43.0802 19.5134 42.3583C18.7908 41.6364 18.2987 40.7167 18.0993 39.7154C17.8999 38.7141 18.0022 37.6762 18.3933 36.7329C18.7844 35.7897 19.4466 34.9835 20.2964 34.4163C21.1461 33.8491 22.1452 33.5464 23.1672 33.5464C23.8457 33.5464 24.5176 33.6799 25.1445 33.9393C25.7715 34.1987 26.3412 34.5789 26.821 35.0583C27.3008 35.5376 27.6814 36.1067 27.9411 36.7329C28.2008 37.3592 28.3344 38.0305 28.3344 38.7084Z" fill="#002F93"/>
<path d="M28.3344 5.16201C28.3344 6.18293 28.0313 7.18092 27.4635 8.02977C26.8957 8.87863 26.0887 9.54023 25.1445 9.93091C24.2004 10.3216 23.1614 10.4238 22.1591 10.2246C21.1568 10.0255 20.2361 9.53383 19.5134 8.81193C18.7908 8.09003 18.2987 7.17028 18.0993 6.16898C17.8999 5.16767 18.0022 4.1298 18.3933 3.18659C18.7844 2.24338 19.4466 1.43719 20.2964 0.869986C21.1461 0.30278 22.1452 1.89752e-05 23.1672 1.28368e-09C23.8457 -1.51172e-05 24.5176 0.133513 25.1445 0.392922C25.7715 0.652332 26.3412 1.03257 26.821 1.51191C27.3008 1.99125 27.6814 2.5603 27.9411 3.18659C28.2008 3.81288 28.3344 4.48412 28.3344 5.16201Z" fill="#002F93"/>
</svg>
